<svg width="1332" height="398" viewBox="0 0 1332 398" fill="none" xmlns="http://www.w3.org/2000/svg">
<mask id="mask0_396_814" style="mask-type:luminance" maskUnits="userSpaceOnUse" x="941" y="2" width="390" height="395">
<path d="M1330.15 30.8425C1262.43 52.5659 1197.49 46.3106 1136.32 2C1075.14 46.3367 1010.2 52.5921 942.485 30.8425C932.171 234.964 1016.59 335.337 1136.32 397C1256.04 335.337 1340.46 234.99 1330.15 30.8425Z" fill="white"/>
</mask>
<g mask="url(#mask0_396_814)">
<g opacity="0.8295">
<path d="M1210.47 68.5836H1181.76V97.2953H1210.47V68.5836Z" fill="white" stroke="white" stroke-width="2.3019" stroke-miterlimit="10"/>
</g>
<g opacity="0.7609">
<path d="M1119.46 128.86H1070.14V178.169H1119.46V128.86Z" fill="white" stroke="white" stroke-width="2.3019" stroke-miterlimit="10"/>
</g>
<g opacity="0.6871">
<path d="M1001.75 235.54H978.528V258.755H1001.75V235.54Z" fill="white" stroke="white" stroke-width="2.3019" stroke-miterlimit="10"/>
</g>
<g opacity="0.2512">
<path d="M1314.02 56.5964H1292.01V78.6079H1314.02V56.5964Z" fill="white" stroke="white" stroke-miterlimit="10"/>
</g>
<g opacity="0.8096">
<path d="M1167.52 327.171H1139.06V355.621H1167.52V327.171Z" fill="white" stroke="white" stroke-width="2.3019" stroke-miterlimit="10"/>
</g>
<g opacity="0.517">
<path d="M1106.79 65.1812H1084.78V87.1924H1106.79V65.1812Z" fill="white" stroke="white" stroke-width="2.3019" stroke-miterlimit="10"/>
</g>
<g opacity="0.7796">
<path d="M1008.42 80.3876H986.407V102.399H1008.42V80.3876Z" fill="white" stroke="white" stroke-width="2.3019" stroke-miterlimit="10"/>
</g>
<g opacity="0.5702">
<path d="M1187.54 -6.47998H1163.15V17.9131H1187.54V-6.47998Z" fill="white" stroke="white" stroke-width="2.3019" stroke-miterlimit="10"/>
</g>
<g opacity="0.609">
<path d="M1304.94 131.948H1282.56V154.326H1304.94V131.948Z" fill="white" stroke="white" stroke-width="2.3019" stroke-miterlimit="10"/>
</g>
<g opacity="0.7744">
<path d="M1120.95 267.078H1074.65V313.378H1120.95V267.078Z" stroke="white" stroke-width="2.3019" stroke-miterlimit="10"/>
</g>
<g opacity="0.9828">
<path d="M1095.72 347.167H1073.7V369.178H1095.72V347.167Z" fill="white" stroke="white" stroke-width="2.3019" stroke-miterlimit="10"/>
</g>
<g opacity="0.5695">
<path d="M1338.76 230.541H1312.85V256.452H1338.76V230.541Z" fill="white" stroke="white" stroke-width="2.3019" stroke-miterlimit="10"/>
</g>
<g opacity="0.6138">
<path d="M1179.85 228.918H1157.83V250.93H1179.85V228.918Z" fill="white" stroke="white" stroke-width="2.3019" stroke-miterlimit="10"/>
</g>
<g opacity="0.511">
<path d="M981.696 145.506H959.263V167.936H981.696V145.506Z" stroke="white" stroke-width="2.3019" stroke-miterlimit="10"/>
</g>
<path d="M1234 143.359H1192.96V184.398H1234V143.359Z" stroke="white" stroke-width="2.3019" stroke-miterlimit="10"/>
<g opacity="0.992">
<path d="M1267.8 186.597H1222.64V231.745H1267.8V186.597Z" fill="white" stroke="white" stroke-width="2.3019" stroke-miterlimit="10"/>
</g>
<g opacity="0.5207">
<path d="M1295.78 303.118H1274.6V324.292H1295.78V303.118Z" fill="white" stroke="white" stroke-width="2.3019" stroke-miterlimit="10"/>
</g>
<g opacity="0.9627">
<path d="M1082.24 210.545H1058.57V234.205H1082.24V210.545Z" fill="white" stroke="white" stroke-width="2.3019" stroke-miterlimit="10"/>
</g>
<g opacity="0.7653">
<path d="M1030.46 164.559H1008.89V186.126H1030.46V164.559Z" fill="white" stroke="white" stroke-width="2.3019" stroke-miterlimit="10"/>
</g>
<g opacity="0.5155">
<path d="M1268.95 21.9698H1246.94V43.9811H1268.95V21.9698Z" fill="white" stroke="white" stroke-width="2.3019" stroke-miterlimit="10"/>
</g>
<g opacity="0.3034">
<path d="M981.408 -5.48541H959.185V16.7353H981.408V-5.48541Z" fill="white" stroke="white" stroke-width="2.3019" stroke-miterlimit="10"/>
</g>
<g opacity="0.5325">
<path d="M970.911 57.2245H948.897V79.236H970.911V57.2245Z" fill="white" stroke="white" stroke-width="2.3019" stroke-miterlimit="10"/>
</g>
<g opacity="0.4519">
<path d="M1077.55 77.7965H1055.54V99.8078H1077.55V77.7965Z" fill="white" stroke="white" stroke-width="2.3019" stroke-miterlimit="10"/>
</g>
<g opacity="0.4116">
<path d="M1024.36 -9.07104H997.14V18.1486H1024.36V-9.07104Z" fill="white" stroke="white" stroke-width="2.3019" stroke-miterlimit="10"/>
</g>
<g opacity="0.7885">
<path d="M1079.31 -16.2164H1051.64V11.4483H1079.31V-16.2164Z" fill="white" stroke="white" stroke-width="2.3019" stroke-miterlimit="10"/>
</g>
<g opacity="0.6679">
<path d="M1035.64 336.672H1013.63V358.683H1035.64V336.672Z" fill="white" stroke="white" stroke-width="2.3019" stroke-miterlimit="10"/>
</g>
<g opacity="0.5971">
<path d="M1342.69 262.341H1318V287.022H1342.69V262.341Z" fill="white" stroke="white" stroke-width="2.3019" stroke-miterlimit="10"/>
</g>
<g opacity="0.4763">
<path d="M1242.22 296.13H1220.26V318.089H1242.22V296.13Z" fill="white" stroke="white" stroke-width="2.3019" stroke-miterlimit="10"/>
</g>
<g opacity="0.4282">
<path d="M1233.69 371.953H1211.47V394.173H1233.69V371.953Z" fill="white" stroke="white" stroke-width="2.3019" stroke-miterlimit="10"/>
</g>
<g opacity="0.5335">
<path d="M1174.43 120.275H1143.93V150.766H1174.43V120.275Z" fill="white" stroke="white" stroke-width="2.3019" stroke-miterlimit="10"/>
</g>
<g opacity="0.5389">
<path d="M1279.73 75.8335H1256.86V98.7085H1279.73V75.8335Z" fill="white" stroke="white" stroke-width="2.3019" stroke-miterlimit="10"/>
</g>
<g opacity="0.31">
<g opacity="0.8295">
<path d="M1073.79 343.188H1102.51V314.477H1073.79V343.188Z" stroke="white" stroke-width="2.3019" stroke-miterlimit="10"/>
</g>
<g opacity="0.7609">
<path d="M1164.82 282.936H1214.13V233.627H1164.82V282.936Z" stroke="white" stroke-width="2.3019" stroke-miterlimit="10"/>
</g>
<g opacity="0.6871">
<path d="M1282.53 176.244H1305.75V153.029H1282.53V176.244Z" stroke="white" stroke-width="2.3019" stroke-miterlimit="10"/>
</g>
<g opacity="0.4747">
<path d="M920.468 259.148H942.482V237.137H920.468V259.148Z" stroke="white" stroke-width="2.3019" stroke-miterlimit="10"/>
</g>
<g opacity="0.2512">
<path d="M970.241 355.19H992.254V333.178H970.241V355.19Z" stroke="white" stroke-width="2.3019" stroke-miterlimit="10"/>
</g>
<g opacity="0.8096">
<path d="M1116.75 84.6346H1145.2V56.1848H1116.75V84.6346Z" stroke="white" stroke-width="2.3019" stroke-miterlimit="10"/>
</g>
<g opacity="0.517">
<path d="M1177.47 346.605H1199.49V324.594H1177.47V346.605Z" stroke="white" stroke-miterlimit="10"/>
</g>
<g opacity="0.7796">
<path d="M1275.84 331.399H1297.85V309.388H1275.84V331.399Z" stroke="white" stroke-width="2.3019" stroke-miterlimit="10"/>
</g>
<g opacity="0.5702">
<path d="M1096.72 418.258H1121.11V393.865H1096.72V418.258Z" stroke="white" stroke-width="2.3019" stroke-miterlimit="10"/>
</g>
<g opacity="0.609">
<path d="M979.318 279.857H1001.7V257.479H979.318V279.857Z" stroke="white" stroke-width="2.3019" stroke-miterlimit="10"/>
</g>
<g opacity="0.7744">
<path d="M1163.3 144.691H1209.61V98.3913H1163.3V144.691Z" stroke="white" stroke-width="2.3019" stroke-miterlimit="10"/>
</g>
<g opacity="0.9828">
<path d="M1188.54 64.624H1210.55V42.6127H1188.54V64.624Z" stroke="white" stroke-width="2.3019" stroke-miterlimit="10"/>
</g>
<g opacity="0.5695">
<path d="M945.517 181.241H971.431V155.33H945.517V181.241Z" stroke="white" stroke-miterlimit="10"/>
</g>
<g opacity="0.6138">
<path d="M1104.41 182.854H1126.43V160.843H1104.41V182.854Z" stroke="white" stroke-width="2.3019" stroke-miterlimit="10"/>
</g>
<g opacity="0.511">
<path d="M1302.57 266.277H1325V243.847H1302.57V266.277Z" stroke="white" stroke-width="2.3019" stroke-miterlimit="10"/>
</g>
<path d="M1050.27 268.417H1091.31V227.378H1050.27V268.417Z" stroke="white" stroke-width="2.3019" stroke-miterlimit="10"/>
<g opacity="0.992">
<path d="M1016.45 225.188H1061.6V180.04H1016.45V225.188Z" stroke="white" stroke-width="2.3019" stroke-miterlimit="10"/>
</g>
<g opacity="0.5207">
<path d="M988.481 108.681H1009.66V87.5073H988.481V108.681Z" stroke="white" stroke-width="2.3019" stroke-miterlimit="10"/>
</g>
<g opacity="0.9627">
<path d="M1202.04 201.231H1225.7V177.571H1202.04V201.231Z" stroke="white" stroke-width="2.3019" stroke-miterlimit="10"/>
</g>
<g opacity="0.7653">
<path d="M1253.79 247.228H1275.36V225.661H1253.79V247.228Z" stroke="white" stroke-miterlimit="10"/>
</g>
<g opacity="0.5155">
<path d="M1015.32 389.813H1037.33V367.802H1015.32V389.813Z" stroke="white" stroke-width="2.3019" stroke-miterlimit="10"/>
</g>
<g opacity="0.3034">
<path d="M1302.86 417.26H1325.08V395.039H1302.86V417.26Z" stroke="white" stroke-width="2.3019" stroke-miterlimit="10"/>
</g>
<g opacity="0.5325">
<path d="M1313.35 354.574H1335.36V332.562H1313.35V354.574Z" stroke="white" stroke-width="2.3019" stroke-miterlimit="10"/>
</g>
<g opacity="0.4519">
<path d="M1206.72 333.986H1228.73V311.975H1206.72V333.986Z" stroke="white" stroke-width="2.3019" stroke-miterlimit="10"/>
</g>
<g opacity="0.4116">
<path d="M1259.92 420.846H1287.14V393.626H1259.92V420.846Z" stroke="white" stroke-width="2.3019" stroke-miterlimit="10"/>
</g>
<g opacity="0.6679">
<path d="M1248.63 75.1204H1270.65V53.1092H1248.63V75.1204Z" stroke="white" stroke-width="2.3019" stroke-miterlimit="10"/>
</g>
<g opacity="0.5971">
<path d="M941.582 149.433H966.266V124.752H941.582V149.433Z" stroke="white" stroke-width="2.3019" stroke-miterlimit="10"/>
</g>
<g opacity="0.4763">
<path d="M1042.03 115.677H1064V93.7186H1042.03V115.677Z" stroke="white" stroke-width="2.3019" stroke-miterlimit="10"/>
</g>
<g opacity="0.4282">
<path d="M1050.58 39.8453H1072.8V17.6246L1050.58 17.6246V39.8453Z" stroke="white" stroke-width="2.3019" stroke-miterlimit="10"/>
</g>
<g opacity="0.5335">
<path d="M1109.83 291.508H1140.32V261.016H1109.83V291.508Z" stroke="white" stroke-width="2.3019" stroke-miterlimit="10"/>
</g>
<g opacity="0.5389">
<path d="M1004.52 335.965H1027.4V313.089H1004.52V335.965Z" stroke="white" stroke-width="2.3019" stroke-miterlimit="10"/>
</g>
</g>
<g opacity="0.8295">
<path d="M1075.77 300.113H1113.62V262.267H1075.77V300.113Z" stroke="white" stroke-miterlimit="10"/>
</g>
<g opacity="0.7609">
<path d="M1195.82 220.615H1260.87V155.576H1195.82V220.615Z" fill="white" stroke="white" stroke-miterlimit="10"/>
</g>
<g opacity="0.2512">
<path d="M939.186 315.937H968.215V286.911H939.186V315.937Z" fill="white" stroke="white" stroke-width="2.3019" stroke-miterlimit="10"/>
</g>
<g opacity="0.517">
<path d="M1212.53 304.596H1241.56V275.571H1212.53V304.596Z" fill="white" stroke="white" stroke-width="2.3019" stroke-miterlimit="10"/>
</g>
<g opacity="0.5702">
<path d="M1106.01 399.116H1138.18V366.949H1106.01V399.116Z" fill="white" stroke="white" stroke-width="2.3019" stroke-miterlimit="10"/>
</g>
<g opacity="0.609">
<path d="M951.189 216.552H980.689V187.056H951.189V216.552Z" fill="white" stroke="white" stroke-width="2.3019" stroke-miterlimit="10"/>
</g>
<g opacity="0.7744">
<path d="M1193.85 38.2838L1254.92 38.2838V-22.7775L1193.85 -22.7775V38.2838Z" fill="white" stroke="white" stroke-width="2.3019" stroke-miterlimit="10"/>
</g>
<g opacity="0.5695">
<path d="M906.577 86.487H940.737V52.3314L906.577 52.3314V86.487Z" fill="white" stroke="white" stroke-width="2.3019" stroke-miterlimit="10"/>
</g>
<g opacity="0.6138">
<path d="M1116.15 88.6232H1145.18V59.5976H1116.15V88.6232Z" fill="white" stroke="white" stroke-width="2.3019" stroke-miterlimit="10"/>
</g>
<path d="M1044.74 201.475H1098.87V147.349H1044.74V201.475Z" stroke="white" stroke-miterlimit="10"/>
<g opacity="0.992">
<path d="M1000.14 144.448H1059.69V84.9046H1000.14V144.448Z" fill="white" stroke="white" stroke-miterlimit="10"/>
</g>
<g opacity="0.9627">
<path d="M1244.91 112.858H1276.11V81.6597H1244.91V112.858Z" fill="white" stroke="white" stroke-miterlimit="10"/>
</g>
<g opacity="0.7653">
<path d="M1313.18 173.526H1341.63V145.076H1313.18V173.526Z" fill="white" stroke="white" stroke-width="2.3019" stroke-miterlimit="10"/>
</g>
<g opacity="0.5155">
<path d="M998.643 361.605H1027.67V332.579H998.643V361.605Z" fill="white" stroke="white" stroke-width="2.3019" stroke-miterlimit="10"/>
</g>
<g opacity="0.4519">
<path d="M1251.11 287.952H1280.14V258.926H1251.11V287.952Z" fill="white" stroke="white" stroke-width="2.3019" stroke-miterlimit="10"/>
</g>
<g opacity="0.6337">
<path d="M1176.14 427.044H1208.96V394.223H1176.14V427.044Z" fill="white" stroke="white" stroke-width="2.3019" stroke-miterlimit="10"/>
</g>
<g opacity="0.4116">
<path d="M1321.25 402.523H1357.16V366.614H1321.25V402.523Z" fill="white" stroke="white" stroke-width="2.3019" stroke-miterlimit="10"/>
</g>
<g opacity="0.7885">
<path d="M1248.77 411.965H1285.26V375.48H1248.77V411.965Z" fill="white" stroke="white" stroke-width="2.3019" stroke-miterlimit="10"/>
</g>
<g opacity="0.5335">
<path d="M1123.27 231.929H1163.51V191.701H1123.27V231.929Z" fill="white" stroke="white" stroke-width="2.3019" stroke-miterlimit="10"/>
</g>
<g opacity="0.5389">
<path d="M984.407 290.544H1014.59V260.367H984.407V290.544Z" fill="white" stroke="white" stroke-width="2.3019" stroke-miterlimit="10"/>
</g>
<g opacity="0.8295">
<path d="M1090.76 304.426H1115.12V280.059H1090.76V304.426Z" stroke="white" stroke-width="2.3019" stroke-miterlimit="10"/>
</g>
<g opacity="0.7609">
<path d="M1168.04 253.256H1209.89V211.405H1168.04V253.256Z" stroke="white" stroke-width="2.3019" stroke-miterlimit="10"/>
</g>
<g opacity="0.6871">
<path d="M1267.94 162.694H1287.65V142.986H1267.94V162.694Z" stroke="white" stroke-width="2.3019" stroke-miterlimit="10"/>
</g>
<g opacity="0.7859">
<path d="M961.917 108.443H976.785V93.5772H961.917V108.443Z" stroke="white" stroke-width="2.3019" stroke-miterlimit="10"/>
</g>
<g opacity="0.4747">
<path d="M960.592 233.074H979.281V214.387H960.592V233.074Z" stroke="white" stroke-width="2.3019" stroke-miterlimit="10"/>
</g>
<g opacity="0.2512">
<path d="M1002.86 314.617H1021.55V295.93H1002.86V314.617Z" stroke="white" stroke-width="2.3019" stroke-miterlimit="10"/>
</g>
<g opacity="0.8096">
<path d="M1127.24 84.9323H1151.37V60.8011H1127.24V84.9323Z" stroke="white" stroke-width="2.3019" stroke-miterlimit="10"/>
</g>
<g opacity="0.6168">
<path d="M1251.03 12.6127L1274.01 12.6127V-10.367L1251.03 -10.367V12.6127Z" stroke="white" stroke-width="2.3019" stroke-miterlimit="10"/>
</g>
<g opacity="0.517">
<path d="M1178.77 307.318H1197.46V288.63H1178.77V307.318Z" stroke="white" stroke-width="2.3019" stroke-miterlimit="10"/>
</g>
<g opacity="0.7796">
<path d="M1262.27 294.409H1280.96V275.722H1262.27V294.409Z" stroke="white" stroke-width="2.3019" stroke-miterlimit="10"/>
</g>
<g opacity="0.5702">
<path d="M1110.2 368.143H1130.91V347.44H1110.2V368.143Z" stroke="white" stroke-width="2.3019" stroke-miterlimit="10"/>
</g>
<g opacity="0.609">
<path d="M1010.58 250.647H1029.56V231.672H1010.58V250.647Z" stroke="white" stroke-width="2.3019" stroke-miterlimit="10"/>
</g>
<g opacity="0.7744">
<path d="M1166.73 135.915H1206.05V96.604H1166.73V135.915Z" stroke="white" stroke-width="2.3019" stroke-miterlimit="10"/>
</g>
<g opacity="0.9828">
<path d="M1188.14 67.9305H1206.83V49.2431H1188.14V67.9305Z" stroke="white" stroke-width="2.3019" stroke-miterlimit="10"/>
</g>
<g opacity="0.5695">
<path d="M981.856 166.951H1003.84V144.966H981.856V166.951Z" stroke="white" stroke-width="2.3019" stroke-miterlimit="10"/>
</g>
<g opacity="0.6138">
<path d="M1116.75 168.323H1135.44V149.636H1116.75V168.323Z" stroke="white" stroke-width="2.3019" stroke-miterlimit="10"/>
</g>
<g opacity="0.511">
<path d="M1284.94 239.134H1304V220.08H1284.94V239.134Z" stroke="white" stroke-width="2.3019" stroke-miterlimit="10"/>
</g>
<path d="M1070.77 240.952H1105.61V206.116H1070.77V240.952Z" stroke="white" stroke-width="2.3019" stroke-miterlimit="10"/>
<g opacity="0.992">
<path d="M1042.08 204.243H1080.4V165.926H1042.08V204.243Z" stroke="white" stroke-width="2.3019" stroke-miterlimit="10"/>
</g>
<g opacity="0.5207">
<path d="M1018.36 105.348H1036.32V87.3935H1018.36V105.348Z" stroke="white" stroke-width="2.3019" stroke-miterlimit="10"/>
</g>
<g opacity="0.9627">
<path d="M1199.62 183.909H1219.69V163.834H1199.62V183.909Z" stroke="white" stroke-width="2.3019" stroke-miterlimit="10"/>
</g>
<g opacity="0.7653">
<path d="M1243.53 222.965H1261.85V204.644H1243.53V222.965Z" stroke="white" stroke-width="2.3019" stroke-miterlimit="10"/>
</g>
<g opacity="0.5155">
<path d="M1041.1 344.009H1059.79V325.322H1041.1V344.009Z" stroke="white" stroke-width="2.3019" stroke-miterlimit="10"/>
</g>
<g opacity="0.3034">
<path d="M1285.18 367.305H1304.05V348.434H1285.18V367.305Z" stroke="white" stroke-width="2.3019" stroke-miterlimit="10"/>
</g>
<g opacity="0.5325">
<path d="M1294.1 314.084H1312.79V295.397H1294.1V314.084Z" stroke="white" stroke-width="2.3019" stroke-miterlimit="10"/>
</g>
<g opacity="0.4519">
<path d="M1203.6 296.606H1222.29V277.919H1203.6V296.606Z" stroke="white" stroke-width="2.3019" stroke-miterlimit="10"/>
</g>
<g opacity="0.6337">
<path d="M1155.35 386.116H1176.47V364.995H1155.35V386.116Z" stroke="white" stroke-width="2.3019" stroke-miterlimit="10"/>
</g>
<g opacity="0.4116">
<path d="M1248.74 370.353H1271.85V347.242H1248.74V370.353Z" stroke="white" stroke-width="2.3019" stroke-miterlimit="10"/>
</g>
<g opacity="0.7885">
<path d="M1202.11 376.407H1225.59V352.93H1202.11V376.407Z" stroke="white" stroke-width="2.3019" stroke-miterlimit="10"/>
</g>
<g opacity="0.6679">
<path d="M1239.16 76.8516H1257.84V58.1643H1239.16V76.8516Z" stroke="white" stroke-width="2.3019" stroke-miterlimit="10"/>
</g>
<g opacity="0.5971">
<path d="M978.509 139.964H999.476V118.999H978.509V139.964Z" stroke="white" stroke-width="2.3019" stroke-miterlimit="10"/>
</g>
<g opacity="0.4763">
<path d="M1063.78 111.27H1082.44V92.6085H1063.78V111.27Z" stroke="white" stroke-width="2.3019" stroke-miterlimit="10"/>
</g>
<g opacity="0.4282">
<path d="M1071.06 46.9009H1089.9V28.0565L1071.06 28.0565V46.9009Z" stroke="white" stroke-width="2.3019" stroke-miterlimit="10"/>
</g>
<g opacity="0.5335">
<path d="M1121.33 260.548H1147.22V234.664H1121.33V260.548Z" stroke="white" stroke-width="2.3019" stroke-miterlimit="10"/>
</g>
<g opacity="0.5389">
<path d="M1031.94 298.276H1051.37V278.856H1031.94V298.276Z" stroke="white" stroke-width="2.3019" stroke-miterlimit="10"/>
</g>
<g opacity="0.5913">
<path d="M946.132 287.812H964.821V269.125H946.132V287.812Z" stroke="white" stroke-width="2.3019" stroke-miterlimit="10"/>
</g>
</g>
<path d="M1330.15 30.8425C1262.43 52.5659 1197.49 46.3106 1136.32 2C1075.14 46.3367 1010.2 52.5921 942.485 30.8425C932.171 234.964 1016.59 335.337 1136.32 397C1256.04 335.337 1340.46 234.99 1330.15 30.8425Z" stroke="white" stroke-width="1.6957" stroke-miterlimit="10"/>
<path d="M1330.15 30.8425C1262.43 52.5659 1197.49 46.3106 1136.32 2C1075.14 46.3367 1010.2 52.5921 942.485 30.8425C932.171 234.964 1016.59 335.337 1136.32 397C1256.04 335.337 1340.46 234.99 1330.15 30.8425Z" stroke="white" stroke-width="0.8479" stroke-miterlimit="10"/>
<path d="M1145.74 178.3C1160.95 172.908 1171.89 158.435 1171.89 141.37C1171.89 119.725 1154.32 102.163 1132.68 102.163C1111.03 102.163 1093.47 119.725 1093.47 141.37C1093.47 160.503 1107.21 176.416 1125.35 179.87V222.689V256.583V256.845H1161.92V245.46H1152.91V235.933H1161.92V222.689H1145.77V178.3H1145.74Z" fill="white" stroke="white" stroke-miterlimit="10"/>
<path d="M66.9053 287.86V309.347H63.8689C59.419 309.138 55.3879 308.798 51.7757 308.3C48.1372 307.803 44.813 306.939 41.7766 305.735V346.277C41.7766 366.038 32.6936 375.931 14.5276 375.931C8.66423 375.931 3.82166 374.91 0 372.895V354.443C3.63843 356.066 6.96275 356.877 9.97296 356.877C13.402 356.877 15.9672 355.909 17.6948 353.998C19.3963 352.088 20.2601 348.79 20.2601 344.157V155.033H41.7504V255.798C41.7504 262.263 42.2477 267.549 43.2685 271.685C44.2894 275.82 45.7291 279.039 47.6661 281.369C49.577 283.698 51.9065 285.295 54.6288 286.211C57.3511 287.127 60.4137 287.676 63.8689 287.886H66.9053V287.86Z" fill="white"/>
<path d="M192.209 287.86V309.347H189.172C181.11 309.138 174.226 308.143 168.598 306.311C162.944 304.505 158.416 301.365 154.987 296.941C147.108 305.212 136.219 309.347 122.293 309.347H60.8586V287.86H76.5903V146.552H98.0806V165.606C100.698 162.178 103.97 159.456 107.923 157.44C111.849 155.425 116.456 154.404 121.691 154.404C136.219 154.404 147.448 158.644 155.432 167.124C163.389 175.604 167.394 187.696 167.394 203.426V260.012V263.048C168.205 272.941 170.457 279.432 174.2 282.573C177.943 285.713 182.916 287.467 189.172 287.86H192.209ZM121.691 287.86C136.611 287.86 144.7 279.903 145.904 263.964C145.694 262.76 145.59 261.503 145.59 260.169C145.59 258.86 145.59 257.394 145.59 255.772H145.904V203.74C145.904 194.658 143.783 187.749 139.543 183.011C135.303 178.274 129.361 175.892 121.691 175.892C114.414 175.892 108.787 178.012 104.729 182.252C100.698 186.492 98.4732 192.538 98.0806 200.416V287.86H121.691ZM138.339 122.343H118.969V89.9668H138.339V122.343Z" fill="white"/>
<path d="M185.848 287.86H246.681C262.622 287.86 270.579 278.777 270.579 260.614V203.74C270.579 194.658 268.511 187.749 264.375 183.011C260.24 178.274 254.324 175.892 246.681 175.892C239.011 175.892 233.148 178.274 229.117 183.011C225.086 187.749 223.07 194.658 223.07 203.74V228.552H201.58V203.426C201.58 188.089 205.454 176.102 213.228 167.412C221.002 158.749 232.153 154.404 246.681 154.404C261.208 154.404 272.411 158.644 280.264 167.124C288.143 175.604 292.069 187.696 292.069 203.426V260.012C292.069 275.349 288.222 287.388 280.578 296.182C272.909 304.95 261.81 309.347 247.283 309.347H185.848V287.86ZM236.079 97.5308H255.449V129.907H236.079V97.5308Z" fill="white"/>
<path d="M309.921 68.7669H322.328C320.705 67.1442 319.606 64.9718 319.004 62.2499C318.402 59.5279 318.088 54.7383 318.088 47.881C318.088 40.003 320.156 33.9046 324.291 29.5861C328.427 25.2414 334.238 23.0691 341.698 23.0691C349.158 23.0691 354.97 25.2414 359.105 29.5861C363.241 33.9308 365.309 39.9244 365.309 47.593V53.037H351.697V47.593C351.697 43.955 350.781 41.2854 348.975 39.5841C347.169 37.8829 344.735 37.0192 341.725 37.0192C338.086 37.0192 335.573 38.3802 334.16 41.1022C332.746 43.8242 332.039 49.2158 332.039 57.3032C332.039 64.9718 335.783 68.7931 343.243 68.7931H365.335V82.717H309.947V68.7669H309.921ZM327.171 97.5308H348.661V309.347H327.171V97.5308Z" fill="white"/>
<path d="M545.085 287.86V309.347H541.76C533.881 309.138 527.18 308.196 521.657 306.468C516.108 304.767 511.632 301.679 508.229 297.229C500.586 305.29 489.723 309.347 475.666 309.347C461.401 309.347 450.485 305.107 442.947 296.627C435.408 288.147 431.639 276.056 431.639 260.326V204.028C431.639 188.298 435.408 176.18 442.947 167.726C450.485 159.246 461.401 155.006 475.666 155.006C490.142 155.006 501.214 159.246 508.831 167.726C516.474 176.206 520.296 188.298 520.296 204.028V260.326V263.964C520.898 273.648 523.071 279.955 526.814 282.887C530.557 285.818 535.53 287.467 541.786 287.886H545.085V287.86ZM468.52 129.907H449.15V97.5308H468.52V129.907ZM498.78 258.52V255.798V202.222C498.78 183.456 491.11 174.086 475.771 174.086C460.641 174.086 453.077 183.456 453.077 202.222V262.132C453.077 272.627 454.935 279.929 458.678 284.064C462.421 288.2 468.101 290.267 475.771 290.267C491.11 290.267 498.78 280.898 498.78 262.132V258.52ZM502.104 129.907H482.734V97.5308H502.104V129.907Z" fill="white"/>
<path d="M670.676 287.86V309.347H667.639C659.577 309.138 652.693 308.143 647.065 306.311C641.411 304.505 636.883 301.365 633.454 296.941C625.575 305.212 614.686 309.347 600.76 309.347H539.326V287.86H555.057V146.552H576.548V165.606C579.165 162.178 582.437 159.456 586.39 157.44C590.316 155.425 594.923 154.404 600.158 154.404C614.686 154.404 625.915 158.644 633.899 167.124C641.856 175.604 645.861 187.696 645.861 203.426V260.012V263.048C646.673 272.941 648.924 279.432 652.667 282.573C656.41 285.713 661.383 287.467 667.639 287.86H670.676ZM600.184 287.86C615.105 287.86 623.193 279.903 624.397 263.964C624.188 262.76 624.083 261.503 624.083 260.169C624.083 258.86 624.083 257.394 624.083 255.772H624.397V203.74C624.397 194.658 622.277 187.749 618.036 183.011C613.796 178.274 607.854 175.892 600.184 175.892C592.907 175.892 587.28 178.012 583.223 182.252C579.191 186.492 576.966 192.538 576.574 200.416V287.86H600.184Z" fill="white"/>
<path d="M742.424 287.86V309.347H739.099C731.639 309.138 725.226 308.3 719.886 306.782C714.546 305.264 710.044 302.49 706.432 298.459C703.003 302.49 698.501 305.317 692.951 306.939C687.402 308.562 680.701 309.373 672.822 309.373H664.341V287.886H672.822C677.063 287.886 680.649 287.598 683.554 286.97C686.486 286.368 688.789 285.059 690.517 283.044C692.219 281.028 693.501 278.045 694.313 274.119C695.124 270.193 695.517 264.984 695.517 258.546V155.059H717.007V255.824C717.007 262.289 717.504 267.575 718.525 271.711C719.52 275.846 720.986 279.065 722.923 281.395C724.834 283.724 727.163 285.321 729.885 286.237C732.608 287.153 735.696 287.702 739.126 287.912H742.424V287.86ZM714.573 129.907H695.202V97.5308H714.573V129.907Z" fill="white"/>
<path d="M736.953 287.86H744.23C752.711 287.86 758.548 285.844 761.793 281.814C765.013 277.783 766.636 270.821 766.636 260.928V204.028C766.636 188.298 770.431 176.18 777.996 167.726C785.561 159.246 796.607 155.006 811.135 155.006C825.453 155.006 836.447 159.246 844.116 167.726C851.786 176.206 855.607 188.298 855.607 204.028V260.326C855.607 276.056 851.786 288.174 844.116 296.627C836.447 305.107 825.453 309.347 811.135 309.347C795.796 309.347 784.593 304.113 777.551 293.617C774.515 299.663 770.196 303.799 764.542 306.023C758.888 308.248 752.03 309.347 743.968 309.347H737.005V287.86H736.953ZM788.1 262.132C788.1 272.627 790.011 279.929 793.859 284.064C797.68 288.2 803.439 290.267 811.109 290.267C826.448 290.267 834.117 280.898 834.117 262.132V202.222C834.117 183.456 826.448 174.086 811.109 174.086C795.77 174.086 788.1 183.456 788.1 202.222V262.132Z" fill="white"/>
</svg>
