<svg version="1.1" id="Layer_1" xmlns="http://www.w3.org/2000/svg" xmlns:xlink="http://www.w3.org/1999/xlink" x="0px" y="0px"
	 width="100%" viewBox="0 0 1024 1024" enable-background="new 0 0 1024 1024" xml:space="preserve">
<path fill="#FFF" opacity="1.000000" stroke="none" 
	d="
M403.549255,170.361938 
	C427.945923,162.121414 452.706787,157.481567 477.851654,154.791748 
	C484.787506,154.049805 491.798553,153.701401 498.775391,153.697525 
	C614.923340,153.633118 731.071289,153.651749 847.219238,153.654129 
	C855.296570,153.654297 855.289917,153.662628 855.288940,161.886215 
	C855.280212,239.207077 855.275208,316.527954 855.265320,393.848816 
	C855.264282,402.356628 855.253296,402.358337 846.953735,402.358765 
	C741.304138,402.364319 635.652954,402.694153 530.005737,402.195251 
	C493.869019,402.024628 462.405487,412.907196 434.974884,436.115295 
	C434.219208,436.754639 433.423737,437.346924 431.639832,438.757202 
	C423.823059,430.623199 416.129120,422.357635 408.159760,414.366730 
	C359.445160,365.520508 310.669678,316.734955 261.909210,267.934448 
	C257.318512,263.339966 257.416840,263.467712 261.966309,258.729645 
	C280.494141,239.433640 300.448029,221.819748 323.229736,207.686295 
	C348.364807,192.092789 374.956787,179.517456 403.549255,170.361938 
M826.089783,372.501343 
	C827.001770,370.600891 826.628784,368.566956 826.629395,366.594238 
	C826.648315,307.447449 826.642212,248.300644 826.632751,189.153839 
	C826.631653,182.387161 826.611328,182.371490 819.605103,182.372269 
	C721.138184,182.383209 622.670776,182.247711 524.204651,182.532013 
	C502.785980,182.593857 481.384155,183.826767 460.106140,187.142334 
	C411.328979,194.742889 367.378754,213.982910 326.857391,241.553650 
	C316.584747,248.543152 306.941772,256.488098 298.457001,265.520325 
	C299.154510,268.113251 301.039276,269.352509 302.534149,270.854950 
	C344.482086,313.015015 386.484558,355.121033 428.337952,397.374725 
	C431.348297,400.413818 433.273163,400.330658 436.698975,398.131592 
	C461.489197,382.218384 488.614655,373.698792 518.166016,373.676910 
	C618.465515,373.602631 718.764954,373.638519 819.064453,373.613190 
	C821.208252,373.612640 823.402405,373.985748 826.089783,372.501343 
z"/>
<path fill="#FFF" opacity="1.000000" stroke="none" 
	d="
M729.505981,795.490601 
	C684.046997,832.091492 633.092529,856.077759 576.101929,867.147644 
	C549.148499,872.383179 521.873779,873.721741 494.601624,872.137207 
	C430.521149,868.414124 371.261047,849.249268 317.726929,813.632141 
	C267.134277,779.971863 228.874908,735.108948 200.685379,681.515137 
	C181.856430,645.717590 169.713379,607.634644 163.888947,567.672363 
	C160.139664,541.947876 159.767487,516.029419 161.508606,490.029510 
	C164.114853,451.110565 172.564621,413.583435 186.207001,377.098816 
	C199.107285,342.598938 217.473434,311.341095 240.876526,282.976044 
	C241.828598,281.822113 242.766891,280.635590 244.732788,279.930634 
	C251.638870,285.788177 257.894287,292.639648 264.325104,299.301971 
	C266.241089,301.286926 264.290222,302.602509 263.216370,303.962769 
	C252.477158,317.566803 241.922958,331.342621 233.468903,346.496521 
	C215.600723,378.525177 203.088943,412.519348 196.221024,448.643280 
	C190.909378,476.581604 189.154846,504.757751 190.502609,533.015076 
	C193.038330,586.178406 207.205139,636.138245 234.159134,682.265991 
	C248.858948,707.422607 266.029236,730.748108 287.102661,750.891235 
	C306.032257,768.985291 326.897095,784.556519 349.439423,798.153442 
	C381.662109,817.589294 416.288513,829.864624 452.965332,837.141418 
	C476.067291,841.724915 499.370331,843.356506 522.881592,842.855103 
	C579.208313,841.653992 630.687256,824.682556 678.232605,795.061279 
	C688.840515,788.452454 698.640625,780.640930 708.203735,772.600220 
	C711.669800,769.685852 714.111877,769.343262 717.317993,772.958740 
	C721.399658,777.561646 726.035217,781.670471 730.385071,786.039062 
	C735.160950,790.835632 735.137634,790.858826 729.505981,795.490601 
z"/>
<path fill="#FFF" opacity="1.000000" stroke="none" 
	d="
M770.000122,465.665009 
	C796.660645,465.664154 822.821960,465.766785 848.980957,465.569275 
	C853.789368,465.532959 855.353149,467.070770 855.301941,471.841034 
	C855.110596,489.667816 855.724304,507.512482 855.183350,525.324585 
	C853.209656,590.304626 836.338745,650.764038 800.966797,705.896118 
	C786.518860,728.415283 770.693604,749.678223 752.676453,769.379211 
	C751.778625,770.360962 750.855591,771.321960 749.899536,772.246399 
	C749.687805,772.451111 749.286621,772.459900 747.853394,773.695068 
	C745.766357,771.146729 743.870422,768.409241 741.564087,766.077820 
	C692.118286,716.091980 642.609436,666.168518 593.190796,616.155945 
	C590.535828,613.469055 587.882019,612.234009 584.035645,612.264648 
	C562.542114,612.435669 541.045471,612.233521 519.552307,612.427124 
	C515.045105,612.467712 513.438232,611.205444 513.555725,606.538269 
	C513.849121,594.881714 513.725647,583.212341 513.636108,571.549072 
	C513.382996,538.564392 513.053467,505.580231 512.776917,472.595673 
	C512.718872,465.671478 512.764099,465.658813 519.558960,465.658783 
	C602.872681,465.658691 686.186340,465.662445 770.000122,465.665009 
M781.766724,681.313232 
	C796.441101,656.908264 807.240540,630.876404 814.783386,603.432495 
	C824.250183,568.988525 826.548828,533.770996 826.750671,498.276703 
	C826.777344,493.593872 824.586914,493.276855 820.934204,493.279510 
	C729.783936,493.345306 638.633545,493.373230 547.483398,493.251556 
	C542.610596,493.245056 541.197998,494.787842 541.286682,499.535706 
	C541.781494,526.017578 542.147339,552.503967 542.219666,578.989746 
	C542.233032,583.873657 544.008850,584.749451 548.349670,584.726501 
	C577.177063,584.573853 606.005615,584.629578 634.833618,584.695129 
	C636.650208,584.699280 638.829895,583.807129 640.455505,586.048584 
	C635.800415,591.506714 631.470947,597.229431 626.446716,602.257935 
	C622.800049,605.907654 623.244446,608.168701 626.661438,611.598267 
	C665.815979,650.896729 704.843933,690.321350 743.915283,729.702820 
	C744.599915,730.392883 745.277771,731.209167 746.791687,730.967834 
	C760.258179,716.200378 771.345093,699.436340 781.766724,681.313232 
z"/>
<path fill="#FFF" opacity="1.000000" stroke="none" 
	d="
M401.616638,440.401245 
	C405.645721,444.393738 409.379761,448.201874 413.239563,451.877991 
	C415.098572,453.648560 415.407013,455.231873 414.015900,457.533569 
	C400.222595,480.355133 395.903656,505.470245 398.551300,531.468018 
	C404.298035,587.895691 446.622925,634.518188 501.705048,642.650818 
	C526.566467,646.321533 550.452026,643.053894 572.581055,630.444580 
	C575.358521,628.861938 577.186279,628.947144 579.522583,631.239197 
	C585.566833,637.168945 591.872925,642.831848 597.846375,648.870483 
	C596.018921,652.086182 593.816406,653.053223 591.877625,654.181091 
	C570.774536,666.456848 548.122620,672.857361 523.592773,673.530212 
	C486.436005,674.549377 453.644562,663.067810 425.608978,639.216492 
	C394.806427,613.011169 376.288300,579.511536 370.536224,539.225464 
	C365.459412,503.668549 371.787720,470.424377 390.601562,439.707642 
	C394.512848,433.321808 394.615143,433.384369 399.962708,438.745148 
	C400.433472,439.217041 400.903076,439.690094 401.616638,440.401245 
z"/>
<path fill="#FFF" opacity="1.000000" stroke="none" 
	d="
M326.763123,367.235596 
	C334.834167,375.440063 334.825348,375.433685 328.383789,384.330261 
	C323.401917,391.210815 318.746857,398.302094 314.675781,405.766571 
	C313.887451,407.212006 313.315216,408.827148 311.219147,410.015137 
	C305.088409,406.350098 300.673248,400.437073 295.484009,395.423248 
	C294.097046,394.083160 295.291870,392.570160 295.978333,391.307495 
	C301.554901,381.049988 307.936798,371.320526 315.063416,362.065155 
	C316.908569,359.668823 318.558167,359.265961 320.745728,361.451508 
	C322.629913,363.333984 324.585022,365.145508 326.763123,367.235596 
z"/>
<path fill="#FFF" opacity="1.000000" stroke="none" 
	d="
M629.525940,724.614014 
	C627.739380,722.742493 628.738831,721.650635 630.143005,720.798218 
	C637.118652,716.563354 643.690857,711.749878 650.234436,706.893494 
	C651.606079,705.875549 652.843994,705.745361 654.205750,707.056458 
	C659.684998,712.331909 665.224182,717.545044 671.089111,723.111511 
	C663.245850,730.005798 655.998169,735.496704 648.408813,740.553284 
	C646.276184,741.974182 645.008972,740.405762 643.733032,739.114563 
	C639.055786,734.381226 634.411011,729.615723 629.525940,724.614014 
z"/>
</svg>